<svg xmlns="http://www.w3.org/2000/svg" xmlns:xlink="http://www.w3.org/1999/xlink" version="1.1" viewBox="0 0 900 1000" width="900" height="1000"><title>棋盤</title><g fill="#fffdd0"><rect width="900" height="1e3" stroke-width=".91287"/><rect x="44" y="44" width="812" height="912" stroke="#6d5330 " stroke-width="4"/><rect x="50" y="50" width="800" height="900" stroke="#6d5330 " stroke-width="4"/></g><defs><g id="f"><polygon points="8 38 12 38 12 12 38 12 38 8 8 8"/></g><g id="a"><use width="100%" height="100%" xlink:href="#f"/><use transform="rotate(-90)" width="100%" height="100%" xlink:href="#f"/></g><g id="e"><use transform="scale(-1)" width="100%" height="100%" xlink:href="#a"/></g><g id="d"><use width="100%" height="100%" xlink:href="#a"/><use width="100%" height="100%" xlink:href="#e"/></g><g id="j"><polygon id="k" points="100 100 0 0" stroke="#6d5330 " stroke-width="4"/><use transform="rotate(-90,100,100)" width="100%" height="100%" xlink:href="#k"/></g><g id="h"><g id="i"><g id="b"><rect id="c" width="100" height="100" fill="#fffdd0" stroke="#6d5330 " stroke-width="4"/><use x="100" width="100%" height="100%" xlink:href="#c"/><use x="200" width="100%" height="100%" xlink:href="#c"/><use x="300" width="100%" height="100%" xlink:href="#c"/></g><use y="100" width="100%" height="100%" xlink:href="#b"/><use y="200" width="100%" height="100%" xlink:href="#b"/><use y="300" width="100%" height="100%" xlink:href="#b"/><use y="300" width="100%" height="100%" xlink:href="#a"/><use x="100" y="200" width="100%" height="100%" xlink:href="#d"/><use x="200" y="300" width="100%" height="100%" xlink:href="#d"/><use x="400" y="300" width="100%" height="100%" xlink:href="#e"/><use x="300" width="100%" height="100%" xlink:href="#j"/></g><use transform="matrix(-1,0,0,1,1200,0)" x="400" width="100%" height="100%" xlink:href="#i"/></g><g id="g"><use x="50" y="6" width="100%" height="100%" xlink:href="#h"/></g></defs><use transform="translate(0,-100)" y="144" width="100%" height="100%" xlink:href="#g"/><use transform="rotate(180,450,550)" y="144" width="100%" height="100%" xlink:href="#g"/><g transform="translate(0,-100)"><svg x="52" y="552" width="796" height="96" version="1.1" viewBox="0 0 796 96"/></g></svg>